<svg xmlns="http://www.w3.org/2000/svg" version="1.1" viewBox="0.34 0.13 512.66 511.37"><path d="M 21.882 1.332 C 13.482 4.447, 7.122 10.086, 2.769 18.278 C 0.902 21.792, 0.523 24.094, 0.513 32 C 0.502 39.979, 0.883 42.301, 2.894 46.500 C 4.811 50.504, 24.966 71.226, 104.047 150.500 C 183.441 230.089, 202.938 250.137, 203.482 252.750 C 205.103 260.533, 208.790 256.501, 104.047 361.500 C 24.966 440.774, 4.811 461.496, 2.894 465.500 C 0.883 469.699, 0.502 472.021, 0.513 480 C 0.523 487.952, 0.897 490.200, 2.806 493.795 C 6.129 500.054, 11.164 505.220, 17.196 508.562 C 22.020 511.234, 23.359 511.500, 32 511.500 C 39.962 511.500, 42.310 511.112, 46.500 509.106 C 50.504 507.189, 71.226 487.034, 150.500 407.953 C 255.499 303.210, 251.467 306.897, 259.250 308.518 C 261.863 309.062, 281.911 328.559, 361.500 407.953 C 440.774 487.034, 461.496 507.189, 465.500 509.106 C 469.699 511.117, 472.021 511.498, 480 511.487 C 487.952 511.477, 490.200 511.103, 493.795 509.194 C 500.428 505.672, 505.498 500.531, 508.545 494.239 C 510.073 491.083, 511.701 487.719, 512.162 486.764 C 513.288 484.431, 513.238 470.735, 512.107 471.434 C 511.615 471.738, 510.905 470.752, 510.529 469.243 C 510.152 467.734, 508.911 464.925, 507.772 463 C 506.632 461.075, 461.485 415.175, 407.445 361 C 303.232 256.526, 306.897 260.536, 308.518 252.750 C 309.062 250.137, 328.559 230.089, 407.953 150.500 C 490.461 67.791, 507.077 50.677, 508.928 46.500 C 510.146 43.750, 511.561 40.719, 512.072 39.764 C 513.353 37.368, 513.288 23.704, 512 24.500 C 511.450 24.840, 510.996 24.304, 510.991 23.309 C 510.976 20.431, 505.489 11.636, 501.550 8.178 C 494.447 1.942, 490.470 0.527, 480 0.513 C 472.021 0.502, 469.699 0.883, 465.500 2.894 C 461.496 4.811, 440.774 24.966, 361.500 104.047 C 281.911 183.441, 261.863 202.938, 259.250 203.482 C 251.467 205.103, 255.499 208.790, 150.500 104.047 C 71.017 24.757, 50.514 4.818, 46.500 2.904 C 40.453 0.021, 27.627 -0.798, 21.882 1.332 M 0.343 32.500 C 0.346 36.900, 0.522 38.576, 0.733 36.224 C 0.945 33.872, 0.942 30.272, 0.727 28.224 C 0.512 26.176, 0.339 28.100, 0.343 32.500 M 0.343 479.500 C 0.346 483.900, 0.522 485.576, 0.733 483.224 C 0.945 480.872, 0.942 477.272, 0.727 475.224 C 0.512 473.176, 0.339 475.100, 0.343 479.500" stroke="none" fill-rule="evenodd"/></svg>