<svg xmlns="http://www.w3.org/2000/svg" version="1.1" viewBox="0.38 0.13 512.62 511.52"><path d="M 231.500 0.709 C 221.871 1.606, 201.620 5.283, 191.500 7.971 C 173.585 12.731, 160.472 17.642, 143.500 25.950 C 91.499 51.404, 51.192 91.716, 25.963 143.500 C 13.992 168.072, 6.609 191.408, 2.328 218.203 C -0.259 234.396, -0.267 277.845, 2.313 293.500 C 6.888 321.256, 14.143 344.250, 25.975 368.500 C 51.261 420.322, 91.502 460.555, 143.500 486.002 C 167.687 497.839, 190.691 505.103, 218.500 509.687 C 235.653 512.514, 278.811 512.240, 296.500 509.192 C 348.645 500.205, 394.974 477.278, 432.425 441.925 C 464.986 411.189, 489.746 370.202, 502.565 325.817 C 506.236 313.106, 511 287.782, 511 280.980 C 511 278.856, 511.450 276.840, 512 276.500 C 512.616 276.120, 513 267.767, 513 254.774 C 513 243.165, 512.669 233.998, 512.264 234.403 C 511.859 234.807, 510.973 230.161, 510.295 224.077 C 505.399 180.163, 485.316 132.597, 456.219 96 C 446.540 83.825, 428.152 65.440, 416 55.787 C 378.526 26.019, 334.104 7.332, 287.030 1.536 C 275.603 0.128, 242.949 -0.358, 231.500 0.709 M 276 128.993 C 251.719 131.640, 234.928 145.922, 228.376 169.500 C 227.101 174.088, 226.601 181.326, 226.253 200.250 L 225.798 225 210.470 225 C 193.529 225, 192.595 225.310, 191.471 231.305 C 191.136 233.087, 191.006 242.252, 191.181 251.671 C 191.603 274.347, 190.373 273, 210.655 273 L 226 273 226 326.943 L 226 380.887 228.223 382.443 C 230.046 383.720, 233.875 384, 249.531 384 C 263.233 384, 269.094 383.647, 270.307 382.750 C 271.851 381.608, 272.018 376.852, 272.248 327.500 L 272.500 273.500 292.717 273 C 308.868 272.601, 313.235 272.198, 314.429 271 C 315.907 269.516, 320.019 240.893, 319.985 232.325 C 319.957 225.378, 320.550 225.554, 295.288 225 L 272.500 224.500 272.565 205.500 C 272.638 184.164, 273.344 180.661, 278.482 176.150 C 282.840 172.324, 289.225 171, 303.327 171 C 319.788 171, 319.004 172.042, 318.985 150.193 C 318.976 140.462, 318.639 132.005, 318.235 131.400 C 316.356 128.586, 312.707 128.004, 297.816 128.142 C 289.392 128.220, 279.575 128.603, 276 128.993 M 0.425 256 C 0.425 267.825, 0.569 272.663, 0.746 266.750 C 0.923 260.837, 0.923 251.162, 0.746 245.250 C 0.569 239.338, 0.425 244.175, 0.425 256" stroke="none" fill-rule="evenodd"/></svg>
