<svg xmlns="http://www.w3.org/2000/svg" version="1.1" viewBox="0.38 0.13 512.62 511.52"><path d="M 231.500 0.709 C 221.871 1.606, 201.620 5.283, 191.500 7.971 C 173.585 12.731, 160.472 17.642, 143.500 25.950 C 91.499 51.404, 51.192 91.716, 25.963 143.500 C 13.992 168.072, 6.609 191.408, 2.328 218.203 C -0.259 234.396, -0.267 277.845, 2.313 293.500 C 6.888 321.256, 14.143 344.250, 25.975 368.500 C 51.261 420.322, 91.502 460.555, 143.500 486.002 C 167.687 497.839, 190.691 505.103, 218.500 509.687 C 235.653 512.514, 278.811 512.240, 296.500 509.192 C 348.645 500.205, 394.974 477.278, 432.425 441.925 C 464.986 411.189, 489.746 370.202, 502.565 325.817 C 506.236 313.106, 511 287.782, 511 280.980 C 511 278.856, 511.450 276.840, 512 276.500 C 512.616 276.120, 513 267.767, 513 254.774 C 513 243.165, 512.669 233.998, 512.264 234.403 C 511.859 234.807, 510.973 230.161, 510.295 224.077 C 505.399 180.163, 485.316 132.597, 456.219 96 C 446.540 83.825, 428.152 65.440, 416 55.787 C 378.526 26.019, 334.104 7.332, 287.030 1.536 C 275.603 0.128, 242.949 -0.358, 231.500 0.709 M 194.409 129.017 C 178.066 131.235, 162.656 139.096, 150.500 151.415 C 141.075 160.965, 135.309 170.606, 131.311 183.500 L 128.521 192.500 128.521 256 L 128.521 319.500 131.311 328.500 C 135.309 341.394, 141.075 351.035, 150.500 360.585 C 163.317 373.573, 177.720 380.654, 195.974 382.939 C 207.108 384.333, 304.783 384.347, 315.875 382.956 C 334.118 380.669, 348.414 373.752, 361.083 361.083 C 373.752 348.414, 380.669 334.118, 382.956 315.875 C 384.334 304.890, 384.334 207.110, 382.956 196.125 C 380.624 177.527, 373.735 163.476, 360.585 150.500 C 351.011 141.052, 341.348 135.282, 328.500 131.342 L 319.500 128.582 260 128.386 C 227.275 128.279, 197.759 128.562, 194.409 129.017 M 196.951 154.031 C 179.186 156.741, 163.085 169.465, 157.068 185.548 C 153.216 195.844, 152.878 202.440, 153.222 260.604 C 153.545 315.159, 153.606 316.658, 155.762 323.072 C 161.229 339.340, 173.233 351.160, 189.500 356.292 C 196.393 358.466, 197.408 358.500, 256 358.500 C 314.643 358.500, 315.601 358.468, 322.542 356.285 C 339.023 351.099, 351.075 339.035, 356.292 322.500 C 358.466 315.607, 358.500 314.592, 358.500 256 C 358.500 197.167, 358.475 196.420, 356.261 189.380 C 351.222 173.360, 339.171 161.173, 323 155.747 C 316.652 153.617, 315.164 153.561, 259.500 153.375 C 228.150 153.271, 200.003 153.566, 196.951 154.031 M 315.177 175.683 C 310.214 178.129, 307 183.474, 307 189.282 C 307 194.905, 308.759 198.778, 312.893 202.256 C 323.947 211.558, 340.971 200.581, 337.914 186.123 C 335.855 176.379, 324.419 171.129, 315.177 175.683 M 248.500 190.559 C 247.400 190.812, 244.025 191.504, 241 192.095 C 233.719 193.519, 220.722 199.865, 214.500 205.035 C 199.784 217.262, 190 237.614, 190 256 C 190 269.234, 196.533 287.268, 205.035 297.500 C 213.823 308.078, 227.984 316.984, 241 320.121 C 248.121 321.836, 263.983 321.820, 271 320.089 C 293.466 314.549, 311.388 297.798, 318.685 275.521 C 320.904 268.746, 321.312 265.713, 321.312 256 C 321.312 246.294, 320.903 243.252, 318.691 236.500 C 311.557 214.719, 294.442 198.227, 273 192.471 C 267.310 190.943, 252.014 189.750, 248.500 190.559 M 246.500 216.386 C 225.971 221.378, 212.127 242.283, 215.876 262.629 C 219.074 279.986, 231.972 292.918, 249.261 296.104 C 270.867 300.085, 291.996 285.036, 296.104 262.739 C 301.293 234.580, 274.529 209.570, 246.500 216.386 M 0.425 256 C 0.425 267.825, 0.569 272.663, 0.746 266.750 C 0.923 260.837, 0.923 251.162, 0.746 245.250 C 0.569 239.338, 0.425 244.175, 0.425 256" stroke="none" fill-rule="evenodd"/></svg>
