<svg xmlns="http://www.w3.org/2000/svg" viewBox="241.64 305 489.21 369.34"><path d="M270 306.846c-8.066 2.656-11.155 4.503-16.482 9.852-5.315 5.337-8.933 12.18-10.548 19.952-.705 3.391-.968 22.871-.77 57 .293 50.588.353 51.979 2.474 57.153 4.216 10.284 12.374 18.419 22.523 22.461 3.957 1.576 7.586 2.126 14.303 2.169 8.04.051 9.694-.271 15.503-3.02 8.329-3.941 15.465-11.074 19.415-19.41 2.954-6.234 3.096-7.134 3.422-21.753.187-8.387.696-15.25 1.132-15.25s1.561 4.387 2.501 9.75c2.849 16.25 1.557 14.593 10.919 14.006 15.567-.975 29.227-7.461 41.611-19.756 15.959-15.844 22.884-38.186 18.608-60.038-4.797-24.517-22.3-44.284-46.111-52.076-6.635-2.171-8.721-2.305-40-2.571-29.639-.252-33.56-.096-38.5 1.531m157.5-.444c-6.909 2.191-12.616 5.617-17.389 10.439-5.578 5.636-8.877 12.09-10.149 19.856-1.345 8.215-1.239 97.423.125 104.869 2.946 16.085 15.712 28.793 31.418 31.278 19.939 3.154 38.524-9.429 42.96-29.087l1.07-4.742 12.047 13.742c13.157 15.008 17.911 18.478 27.839 20.313 15.248 2.819 32.593-6.55 39.952-21.58 5.526-11.285 4.231-26.542-3.093-36.43-.18-.242-2.453 1.633-5.053 4.165-5.02 4.89-16.052 12.001-17.363 11.191-.43-.266 3.153-4.406 7.962-9.2 14.055-14.009 20.209-28.64 20.281-48.216.041-10.933-1.052-16.866-4.789-26-8.45-20.65-26.709-36.007-48.241-40.571-8.931-1.893-71.623-1.915-77.577-.027m255-.058c-8.975 2.976-12.868 6.376-49.05 42.829-69.374 69.894-68.57 68.96-70.237 81.569-3.351 25.337 18.426 46.706 43.158 42.35 11.514-2.029 15.075-4.611 39.601-28.716C665.834 424.856 671 420.342 671 422.507c0 .279-3.429 5.655-7.619 11.947l-7.619 11.44 2.992 6.394c5.28 11.283 15.261 18.622 28.058 20.63 20.058 3.148 39.478-10.838 43.221-31.127.675-3.661.948-23.929.76-56.5-.291-50.482-.307-50.826-2.614-56.538-3.246-8.04-10.522-15.662-18.883-19.783-5.683-2.8-8.106-3.398-14.796-3.651-4.79-.181-9.605.23-12 1.025M320.743 364.59c-.409.409-.743 4.268-.743 8.577V381h3.545c7.365 0 11.348-8.934 6.157-13.81-2.45-2.302-7.726-3.833-8.959-2.6m155.507 1.072c-.852.344-1.25 3.024-1.25 8.421V382h4c5.087 0 8-2.701 8-7.418 0-4.797-.823-6.439-4.072-8.119-2.897-1.498-4.479-1.688-6.678-.801M657.5 501.125c-22.916.795-33.886 2.093-55 6.508-41.797 8.741-68.675 24.343-84.944 49.307-5.229 8.023-12.396 23.558-14.998 32.508-5.019 17.264-9.116 47.122-8.376 61.042l.318 5.99 5.5.844c8.222 1.261 63.604.012 76.732-1.731 15.327-2.034 38.881-7.11 49.768-10.725 11.347-3.768 29.912-12.833 36.761-17.949 13.664-10.206 25.503-25.261 32.389-41.184 5.653-13.073 7.245-18.265 10.498-34.235 2.437-11.963 3.164-18.478 3.589-32.179l.532-17.18-3.384-.541c-5.633-.9-30.295-1.138-49.385-.475m-385.324 2.945c-24.251 4.772-37.763 32.49-26.535 54.43 5.889 11.508 18.985 20.432 30.059 20.485l3.2.015.3 33.25.3 33.25 3.082 6.503c5.596 11.808 16.194 19.937 28.597 21.936 14.392 2.32 30.731-5.602 38.358-18.599 4.865-8.288 5.463-13.332 5.463-46.05V579l3.75-.024c2.063-.013 6.305-1.074 9.428-2.359 15.235-6.266 24.635-21.044 23.604-37.108-1.143-17.818-13.934-32.124-31.742-35.501-6.413-1.217-81.638-1.163-87.864.062m153.556-.033c-9.884 1.663-20.244 8.861-25.389 17.641s-5.318 10.925-5.331 65.362c-.013 55.675.192 57.927 6.108 67.147 17.945 27.965 60.133 21.101 68.769-11.187.886-3.311 1.126-18.632.907-58l-.296-53.5-2.824-6.11c-4.93-10.667-14.844-18.469-26.652-20.972-7.183-1.523-8.331-1.552-15.292-.381" fill-rule="evenodd"/></svg>
