<svg xmlns="http://www.w3.org/2000/svg" fill-rule="evenodd" viewBox="30.05 37.15 487.83 368.69"><path d="M433.5 234.109c-39.067 2.936-73.982 12.084-96 25.154-30.98 18.389-49.111 52.852-53.524 101.737-.62 6.875-.981 15.875-.802 20l.326 7.5 15.5.819c17.394.92 49.808-.445 68-2.863 62.555-8.313 97.131-28.362 114.939-66.645C492.004 298.172 497 274.161 497 247.426v-13.127l-9.154-.649c-11.816-.839-40.278-.599-54.346.459" fill="#73b52a"/><path d="M62.78 38.03c-16.415 2.766-29.39 16.307-31.837 33.228-1.149 7.946-1.163 93.032-.016 101.921 2.288 17.74 15.007 30.885 32.573 33.666 16.921 2.678 33.138-6.299 40.744-22.553 2.895-6.186 3.101-7.432 3.551-21.43.633-19.742 1.611-19.941 4.834-.982l1.765 10.38 7.177-.607c24.941-2.108 47.458-18.538 56.752-41.41 12.229-30.095 1.397-64.895-25.638-82.368-14.03-9.068-23.683-10.832-58.685-10.722-14.575.045-28.624.44-31.22.877m154.524.431c-13.453 3.021-24.822 13.72-28.202 26.539-.863 3.273-1.107 19.086-.894 58l.292 53.5 3.11 6.5c6.572 13.739 19.307 22 33.913 22 18.136 0 34.073-13.235 36.941-30.678l.687-4.178 7.594 8.678c12.941 14.789 18.568 20.238 23.755 23.003 4.404 2.348 6.132 2.666 14.5 2.67 8.181.004 10.28-.361 15.12-2.63 15.297-7.173 24.871-24.058 22.097-38.971-1.068-5.747-4.889-14.894-6.22-14.894-.357 0-1.739 1.168-3.073 2.596-2.955 3.165-16.83 12.404-18.628 12.404-2.642 0-1.066-2.612 3.88-6.428 9.922-7.657 18.485-21.825 21.961-36.338 7.166-29.92-7.557-61.944-34.637-75.34-14.148-6.998-15.169-7.144-52.5-7.503-25.939-.249-34.898-.008-39.696 1.07m255.928-.459c-10.756 2.267-13.29 4.491-65.603 57.583-45.248 45.921-50.076 51.137-52.958 57.221-2.831 5.976-3.171 7.66-3.171 15.694 0 7.656.397 9.848 2.66 14.675 3.725 7.946 9.87 14.222 17.696 18.075 6.117 3.011 7.338 3.25 16.623 3.25 15.408 0 16.596-.744 44.933-28.142l24.614-23.191c2.219-.76.596 2.752-6.026 13.04-3.85 5.981-7 11.46-7 12.174 0 2.977 6.367 13.718 10.166 17.15 2.252 2.034 6.623 4.884 9.714 6.334 4.836 2.267 6.945 2.635 15.12 2.635 8.544 0 10.154-.311 16-3.087 7.862-3.733 15.031-10.741 18.764-18.342l2.736-5.571.275-54.407c.304-60.03.297-60.112-5.905-69.476-7.697-11.619-24.799-18.531-38.638-15.615M108.211 104.75c.284 8.602.333 8.755 2.899 9.053 3.196.371 8.401-3.719 9.302-7.309.743-2.961-1.562-7.968-4.357-9.464-1.058-.567-3.321-1.03-5.028-1.03h-3.105l.289 8.75m155.211-6.406c-.284.739-.382 4.676-.219 8.75l.297 7.406 3.263.314c2.557.247 3.934-.358 6.373-2.796 2.698-2.698 3.032-3.602 2.521-6.814-.352-2.21-1.634-4.612-3.179-5.954-2.856-2.482-8.245-3.021-9.056-.906M53.593 238.461c-7.466 3.089-12.103 6.812-16.807 13.498-11.927 16.954-7.563 41.03 9.491 52.349C51.52 307.788 60.354 311 64.682 311H67v28.816c0 31.853.677 37.864 5.227 46.436 15.134 28.508 55.504 25.23 68.131-5.533 2.053-5.002 2.134-6.558 1.946-37.361l-.196-32.141 5.308-.663c11.557-1.444 24.074-10.625 28.679-21.037 8.411-19.014.644-40.611-17.887-49.736l-6.662-3.281-46.023-.242-46.023-.241-5.907 2.444m154.826-.639c-10.044 3.472-18.433 11.634-22.633 22.023-2.283 5.646-2.286 5.737-2.286 59.155 0 48.843.156 53.947 1.791 58.632 3.728 10.681 13.443 20.458 23.721 23.872 6.402 2.126 17.514 2.146 23.846.043 10.239-3.401 19.12-11.915 23.356-22.392 2.284-5.651 2.286-5.695 2.286-60.155v-54.5l-2.688-5.735c-1.478-3.155-3.865-7.28-5.304-9.166-3.52-4.615-11.891-10.226-18.008-12.07-6.704-2.021-17.777-1.887-24.081.293" fill="#e66b1e"/></svg>