<svg xmlns="http://www.w3.org/2000/svg" width="512" height="512" viewBox="0 0 512 512" version="1.1"><path d="M 223.564 1.625 C 177.870 7.477, 131.882 27.149, 95 56.620 C 84.098 65.331, 65.331 84.098, 56.620 95 C 32.221 125.534, 13.796 163.819, 5.605 201 C -1.933 235.216, -1.945 276.824, 5.574 310.934 C 11.608 338.308, 25.766 372.139, 40.755 395 C 83.666 460.446, 152.281 502.664, 229.211 510.954 C 243.261 512.468, 271.478 512.238, 286.441 510.488 C 332.832 505.061, 379.452 485.383, 417 455.380 C 427.902 446.669, 446.669 427.902, 455.380 417 C 484.721 380.281, 505.608 331.372, 510.078 288.923 C 510.681 283.191, 511.586 277.719, 512.088 276.764 C 512.589 275.809, 512.964 265.459, 512.921 253.764 C 512.878 242.069, 512.566 233.175, 512.229 234 C 511.891 234.825, 511.041 230.441, 510.338 224.258 C 505.275 179.671, 485.074 132.161, 455.380 95 C 446.669 84.098, 427.902 65.331, 417 56.620 C 379.589 26.727, 333.716 7.284, 287.030 1.536 C 271.561 -0.369, 238.774 -0.323, 223.564 1.625 M 153 157.121 C 143.584 160.865, 140.301 173.450, 146.744 181.107 C 152.005 187.360, 145.311 187, 256.302 187 L 357.704 187 361.010 184.750 C 366.514 181.004, 368.429 177.611, 368.429 171.600 C 368.429 167.261, 367.891 165.546, 365.582 162.519 C 360.322 155.622, 366.635 155.993, 255.782 156.063 C 191.831 156.104, 154.594 156.487, 153 157.121 M 0.426 255.500 C 0.427 267.600, 0.571 272.413, 0.747 266.195 C 0.923 259.977, 0.922 250.077, 0.746 244.195 C 0.569 238.313, 0.425 243.400, 0.426 255.500 M 154.354 241.082 C 146.639 243.341, 141.604 252.397, 143.866 259.947 C 145.387 265.024, 150.061 269.670, 154.980 270.995 C 157.580 271.695, 191.520 271.949, 258.177 271.769 L 357.500 271.500 361.179 269.212 C 365.055 266.802, 369 260.138, 369 256 C 369 251.862, 365.055 245.198, 361.179 242.788 L 357.500 240.500 257.500 240.331 C 198.936 240.231, 156.196 240.543, 154.354 241.082 M 150.990 327.250 C 145.486 330.996, 143.571 334.389, 143.571 340.400 C 143.571 344.739, 144.109 346.454, 146.418 349.481 C 151.674 356.373, 145.409 356, 256 356 C 366.591 356, 360.326 356.373, 365.582 349.481 C 367.891 346.454, 368.429 344.739, 368.429 340.400 C 368.429 334.389, 366.514 330.996, 361.010 327.250 L 357.704 325 256 325 L 154.296 325 150.990 327.250" stroke="none" fill-rule="evenodd"/></svg>
