<svg xmlns="http://www.w3.org/2000/svg" version="1.1" viewBox="0.38 0.13 512.62 511.52"><path d="M 231.500 0.709 C 221.871 1.606, 201.620 5.283, 191.500 7.971 C 173.585 12.731, 160.472 17.642, 143.500 25.950 C 91.499 51.404, 51.192 91.716, 25.963 143.500 C 13.992 168.072, 6.609 191.408, 2.328 218.203 C -0.259 234.396, -0.267 277.845, 2.313 293.500 C 6.888 321.256, 14.143 344.250, 25.975 368.500 C 51.261 420.322, 91.502 460.555, 143.500 486.002 C 167.687 497.839, 190.691 505.103, 218.500 509.687 C 235.653 512.514, 278.811 512.240, 296.500 509.192 C 348.645 500.205, 394.974 477.278, 432.425 441.925 C 464.986 411.189, 489.746 370.202, 502.565 325.817 C 506.236 313.106, 511 287.782, 511 280.980 C 511 278.856, 511.450 276.840, 512 276.500 C 512.616 276.120, 513 267.767, 513 254.774 C 513 243.165, 512.669 233.998, 512.264 234.403 C 511.859 234.807, 510.973 230.161, 510.295 224.077 C 505.399 180.163, 485.316 132.597, 456.219 96 C 446.540 83.825, 428.152 65.440, 416 55.787 C 378.526 26.019, 334.104 7.332, 287.030 1.536 C 275.603 0.128, 242.949 -0.358, 231.500 0.709 M 242.609 128.999 C 203.734 133.866, 171.293 153.813, 150.290 185.761 C 136.338 206.985, 129.961 228.792, 129.934 255.371 C 129.914 274.192, 132.975 288.144, 142.027 310.500 C 143.090 313.126, 142.404 317.532, 136.528 345.811 C 132.835 363.582, 130.076 379.166, 130.396 380.441 C 130.716 381.717, 131.771 382.967, 132.739 383.220 C 133.708 383.472, 149.106 380.208, 166.958 375.966 L 199.415 368.254 207.088 371.538 C 221.278 377.611, 233.588 380.156, 251.500 380.718 C 263.725 381.101, 269.741 380.830, 277 379.567 C 338.377 368.890, 382.228 316.772, 382.228 254.500 C 382.228 194.292, 340.240 142.976, 281.234 131.067 C 269.673 128.733, 252.202 127.798, 242.609 128.999 M 245.512 156.084 C 215.310 159.349, 187.079 177.165, 171.187 202.987 C 161.224 219.177, 156.687 235.840, 156.751 256 C 156.804 272.417, 159.376 283.646, 166.603 299.011 L 171.333 309.066 167.244 328.777 C 164.996 339.619, 163.313 348.646, 163.505 348.838 C 163.697 349.030, 172.597 347.118, 183.283 344.589 L 202.713 339.991 212.329 344.546 C 227.763 351.857, 238.631 354.272, 256 354.249 C 268.378 354.232, 271.963 353.847, 280.500 351.615 C 316 342.335, 343.234 315.099, 352.632 279.477 C 354.895 270.899, 355.264 267.467, 355.264 255 C 355.264 242.550, 354.894 239.097, 352.644 230.571 C 346.533 207.412, 332.861 187.584, 313.500 173.803 C 305.069 167.802, 299.912 165.114, 290.016 161.561 C 275.687 156.417, 260.136 154.503, 245.512 156.084 M 210.485 195.392 C 206.454 197.148, 197.778 206.773, 194.871 212.714 C 191.961 218.660, 191.757 230.394, 194.407 239.500 C 202.997 269.019, 243.291 306.587, 274.940 314.585 C 284.053 316.889, 299.948 316.202, 305.582 313.261 C 310.262 310.818, 320.437 300.248, 322.724 295.452 C 324.478 291.774, 323.890 287.890, 321.168 285.168 C 319.127 283.127, 295.064 276, 290.212 276 C 287.689 276, 285.673 277.204, 281 281.500 C 273.317 288.563, 270.447 288.732, 260.809 282.693 C 247.404 274.294, 229.257 256.801, 225.266 248.432 C 223.288 244.284, 224.002 241.699, 228.960 235.053 C 231.182 232.075, 233 228.521, 233 227.156 C 233 225.790, 230.228 218.393, 226.841 210.719 C 221.333 198.242, 220.331 196.619, 217.373 195.382 C 213.491 193.760, 214.232 193.759, 210.485 195.392 M 0.425 256 C 0.425 267.825, 0.569 272.663, 0.746 266.750 C 0.923 260.837, 0.923 251.162, 0.746 245.250 C 0.569 239.338, 0.425 244.175, 0.425 256" stroke="none" fill-rule="evenodd"/></svg>
