<?xml version="1.0" standalone="no"?>
<!DOCTYPE svg PUBLIC "-//W3C//DTD SVG 20010904//EN"
 "http://www.w3.org/TR/2001/REC-SVG-20010904/DTD/svg10.dtd">
<svg version="1.0" xmlns="http://www.w3.org/2000/svg"
 width="976.000000pt" height="976.000000pt" viewBox="0 0 976.000000 976.000000"
 preserveAspectRatio="xMidYMid meet">
<metadata>
Created by potrace 1.14, written by Peter Selinger 2001-2017
</metadata>
<g transform="translate(0.000000,976.000000) scale(0.100000,-0.100000)"
fill="#000000" stroke="none">
<path d="M759 8566 c-3 -3 -34 -8 -70 -11 -105 -9 -236 -58 -339 -128 -60 -41
-223 -207 -203 -207 3 0 -1 -8 -9 -17 -32 -38 -81 -147 -103 -229 -26 -98 -30
-243 -29 -1129 1 -960 3 -1008 43 -1142 11 -36 63 -156 71 -163 3 -3 18 -24
33 -48 32 -49 116 -137 167 -175 93 -67 246 -130 353 -144 136 -18 307 5 417
56 46 21 55 27 125 73 96 63 196 180 255 298 18 36 39 77 47 93 8 15 12 27 9
27 -2 0 -1 14 4 31 13 44 21 129 25 276 6 196 15 307 24 316 15 15 34 -37 46
-123 1 -8 8 -44 15 -80 7 -36 14 -76 16 -90 2 -14 6 -38 9 -55 4 -16 11 -54
16 -83 6 -29 14 -50 17 -48 4 2 50 7 102 11 52 4 97 8 100 10 3 2 27 6 54 9
27 4 53 9 56 11 4 2 22 7 40 10 98 17 299 109 426 195 94 63 104 72 198 166
93 93 126 130 126 143 0 5 4 11 9 13 15 5 106 158 140 235 28 64 68 181 76
223 2 8 4 16 5 18 3 3 5 11 14 67 51 304 10 587 -123 856 -35 70 -101 178
-126 205 -5 7 -26 31 -45 55 -175 215 -438 379 -700 435 -19 4 -37 8 -40 9 -8
2 -122 16 -180 22 -90 10 -1024 11 -1042 2 -10 -6 -18 -5 -20 2 -2 6 -6 8 -9
5z m915 -1180 c69 -13 136 -98 136 -173 0 -106 -175 -225 -227 -156 -7 9 -13
33 -14 52 -1 38 -8 202 -10 236 -3 35 1 46 11 40 6 -3 10 -2 10 2 0 9 46 8 94
-1z"/>
<path d="M3897 8564 c-1 -1 -33 -5 -72 -9 -158 -15 -330 -100 -452 -223 -120
-121 -187 -255 -201 -402 -4 -41 -6 -541 -5 -1111 l1 -1037 50 -100 c27 -55
64 -121 83 -148 41 -60 176 -194 195 -194 8 0 14 -4 14 -8 0 -8 145 -81 172
-86 7 -2 20 -6 28 -9 88 -32 298 -31 405 3 86 27 158 59 167 74 4 6 8 7 8 3 0
-15 93 57 157 121 84 83 140 173 178 286 17 49 19 57 30 130 3 22 7 41 8 42 5
6 23 -13 87 -86 36 -41 70 -80 75 -86 6 -6 39 -44 74 -85 60 -68 277 -287 314
-316 9 -7 21 -13 27 -13 5 0 10 -4 10 -9 0 -4 33 -23 73 -42 l72 -34 173 -2
c158 -1 180 1 242 22 377 128 615 561 493 895 -4 8 -8 23 -10 33 -5 31 -77
171 -88 174 -6 2 -29 -13 -50 -33 -79 -73 -289 -224 -310 -224 -4 0 -19 -8
-33 -18 -31 -21 -63 -23 -70 -4 -2 7 24 38 59 70 218 198 307 318 412 552 18
39 65 181 71 214 2 12 7 32 10 46 12 55 18 110 22 205 2 55 4 102 5 105 1 3 0
10 -1 15 -1 6 -4 30 -6 55 -6 72 -26 194 -35 211 -5 9 -11 31 -14 50 -7 41
-46 143 -88 227 -75 156 -223 342 -362 455 -134 109 -409 241 -545 262 -25 4
-58 9 -73 11 -16 3 -85 6 -153 9 -68 2 -129 7 -134 10 -6 3 -10 1 -10 -5 0 -6
-5 -8 -12 -3 -11 6 -984 13 -991 7z m930 -1220 c18 -11 33 -22 33 -26 0 -4 6
-13 14 -21 21 -21 44 -97 41 -134 -4 -43 -35 -85 -90 -121 -39 -26 -52 -29
-97 -25 -29 2 -54 6 -56 8 -2 2 -5 70 -7 152 -4 185 1 198 78 190 29 -3 67
-13 84 -23z"/>
<path d="M8879 8557 c-92 -23 -139 -41 -194 -74 -33 -20 -62 -39 -65 -42 -3
-3 -32 -28 -65 -56 -33 -27 -84 -72 -114 -100 -46 -42 -941 -935 -941 -939 0
0 -96 -98 -213 -217 -215 -219 -557 -573 -599 -620 -13 -14 -42 -47 -65 -73
-24 -26 -43 -51 -43 -56 0 -4 -3 -10 -7 -12 -15 -6 -62 -76 -56 -82 4 -3 2 -6
-4 -6 -12 0 -58 -107 -70 -162 -10 -44 -9 -312 1 -363 7 -34 49 -128 89 -197
36 -63 143 -171 222 -225 33 -22 62 -41 65 -41 3 0 37 -15 75 -33 l70 -32 175
-1 c213 -1 253 4 333 44 104 53 204 135 442 365 82 78 352 335 434 411 40 38
105 99 144 137 39 37 74 67 79 67 24 0 -7 -66 -106 -223 -132 -211 -165 -274
-160 -305 5 -28 51 -121 72 -144 8 -10 12 -18 8 -18 -8 0 45 -73 57 -78 4 -2
7 -10 7 -17 0 -20 99 -105 180 -153 121 -72 186 -89 357 -90 91 -1 169 4 203
12 117 27 245 102 346 201 87 86 119 131 181 255 l37 74 1 1031 c0 998 -3
1174 -24 1243 -5 17 -8 32 -6 32 10 0 -40 100 -80 160 -61 92 -155 179 -247
228 -102 54 -276 111 -298 97 -6 -3 -10 -2 -10 2 0 11 -168 11 -211 0z"/>
<path d="M8246 4643 c-3 -3 -29 -7 -58 -8 -47 -2 -165 -11 -253 -19 -125 -12
-172 -18 -185 -21 -8 -2 -42 -7 -75 -10 -33 -3 -85 -10 -115 -15 -84 -15 -121
-21 -175 -30 -39 -7 -208 -42 -305 -65 -183 -42 -369 -99 -550 -170 -87 -34
-352 -159 -375 -177 -5 -4 -48 -33 -95 -64 -145 -96 -298 -235 -400 -363 -19
-24 -47 -59 -62 -76 -16 -18 -28 -36 -28 -40 0 -4 -13 -24 -29 -44 -45 -58
-147 -244 -201 -367 -66 -151 -150 -408 -174 -534 -3 -14 -7 -36 -10 -50 -3
-14 -8 -36 -11 -50 -9 -43 -15 -74 -20 -105 -2 -16 -6 -41 -9 -55 -4 -24 -21
-155 -32 -250 -17 -158 -25 -572 -10 -587 3 -3 30 -8 59 -9 28 -2 104 -6 167
-9 205 -12 534 -12 542 0 5 7 8 6 8 -1 0 -6 12 -10 28 -8 15 2 90 6 167 9 194
7 358 18 480 30 22 2 67 6 99 9 66 6 87 9 311 42 41 6 220 39 260 48 6 1 26 6
45 10 19 4 73 16 120 28 47 11 92 21 100 23 8 2 15 4 15 5 0 1 7 3 15 5 23 4
133 36 150 42 8 3 22 7 30 9 8 2 62 22 120 44 58 23 110 42 115 43 6 2 39 16
75 32 654 299 1012 728 1230 1474 25 85 21 71 54 221 33 157 41 208 60 405 12
122 16 214 17 395 1 248 2 236 -18 237 -10 0 -65 4 -123 8 -142 9 -849 13
-880 4 -14 -3 -35 -3 -47 2 -11 4 -24 5 -27 2z"/>
<path d="M555 4576 c-16 -6 -45 -19 -64 -29 -19 -9 -38 -17 -43 -17 -20 0
-147 -81 -197 -126 -98 -88 -203 -259 -225 -366 -3 -13 -8 -34 -12 -48 -11
-42 -13 -222 -3 -275 29 -155 96 -288 201 -398 35 -37 68 -67 74 -67 6 0 20
-9 33 -21 24 -23 181 -99 203 -99 8 0 18 -4 24 -9 13 -12 97 -31 138 -31 42 0
68 -9 60 -21 -5 -8 -8 -414 -3 -429 1 -3 0 -9 -1 -15 -8 -36 6 -674 16 -740 3
-22 8 -51 10 -65 2 -14 6 -35 9 -48 3 -12 7 -32 10 -45 13 -62 85 -205 108
-215 4 -2 7 -9 7 -16 0 -7 30 -44 68 -82 113 -118 215 -174 377 -210 57 -12
234 -13 280 -1 11 3 34 8 50 12 45 11 179 67 183 77 2 4 10 8 18 8 8 0 14 4
14 9 0 5 7 11 15 13 23 5 117 87 160 141 22 27 45 54 50 60 30 36 99 177 109
223 4 16 9 40 13 54 3 14 6 309 7 655 l1 630 55 7 c30 4 71 10 90 13 46 7 168
53 202 77 14 10 29 18 32 18 14 0 123 86 168 133 91 94 153 213 182 352 20 95
14 272 -11 350 -4 11 -8 26 -9 33 -1 8 -24 57 -50 109 -38 76 -63 112 -128
178 -88 90 -124 115 -258 181 l-88 44 -922 4 c-663 2 -931 0 -953 -8z"/>
<path d="M3728 4585 c-2 -2 -27 -6 -56 -9 -170 -20 -361 -146 -474 -313 -42
-64 -77 -127 -84 -155 -1 -5 -3 -10 -4 -13 -1 -3 -3 -8 -5 -12 -1 -5 -5 -15
-8 -23 -4 -8 -11 -46 -16 -85 -9 -71 -7 -2031 2 -2115 6 -58 26 -126 50 -170
40 -74 82 -140 89 -140 4 0 8 -6 8 -12 0 -16 160 -168 177 -168 7 0 13 -4 13
-8 0 -23 162 -90 260 -108 47 -8 191 -9 268 0 172 19 316 106 472 286 49 57
118 207 134 289 11 60 14 276 15 1132 2 1053 2 1058 -19 1098 -11 23 -18 41
-14 41 4 0 1 6 -5 14 -6 7 -27 44 -47 82 -51 95 -70 122 -127 176 -52 50 -148
118 -166 118 -6 0 -11 3 -11 8 0 4 -12 12 -27 19 -87 38 -125 53 -131 52 -4
-1 -9 0 -12 1 -22 8 -274 22 -282 15z"/>
</g>
</svg>
