<svg xmlns="http://www.w3.org/2000/svg" width="1728" height="866" fill-rule="evenodd" xmlns:v="https://vecta.io/nano"><path d="M565.4 15.7l3.8.5-.5 20.2c-.5 22.6-2.3 35.8-7.3 55.5-15.7 61.5-50.4 94.3-117.3 111.1-33.5 8.3-63.4 11.4-109.6 11.3-34.4 0-39.2-.4-39.7-3-.8-4 1.1-39.9 2.6-49.7 6.5-42.1 22-75.5 44.9-97.3 31-29.5 88.8-46.9 164.7-49.7 11.4-.4 53.5.3 58.4 1.1zm576 0l3.8.5-.5 20.2c-.5 22.6-2.3 35.8-7.3 55.5-15.7 61.5-50.4 94.3-117.3 111.1-33.5 8.3-63.4 11.4-109.6 11.3-34.4 0-39.2-.4-39.7-3-.8-4 1.1-39.9 2.6-49.7 6.5-42.1 22-75.5 44.9-97.3 31-29.5 88.8-46.9 164.7-49.7 11.4-.4 53.5.3 58.4 1.1zM89.1 220c47.9 3.7 83.7 12.4 114.4 27.7 31.3 15.7 52.5 41 65.3 78.5 8 23.3 11.1 41.6 11.9 70.4l.6 21.2-22.9.7c-86 2.8-154.5-11.7-194.1-41.1C28.4 350.7 7 297.5 7 235.3v-15.2l5.2-.4c12.3-.8 64.5-.6 76.8.3zm576 0c48 3.7 83.8 12.4 114.5 27.7 31.3 15.7 52.5 41 65.3 78.5 8 23.3 11.1 41.6 11.9 70.4l.6 21.2-22.9.7c-86 2.8-154.5-11.7-194.1-41.1-35.9-26.7-57.3-79.9-57.3-142.1v-15.2l5.2-.4c12.3-.8 64.5-.6 76.8.3zm576 0c48 3.7 83.8 12.4 114.5 27.7 31.3 15.7 52.5 41 65.3 78.5 8 23.3 11.1 41.6 11.9 70.4l.6 21.2-22.9.7c-86 2.8-154.5-11.7-194.1-41.1-35.9-26.7-57.3-79.9-57.3-142.1v-15.2l5.2-.4c12.3-.8 64.5-.6 76.8.3zm288 0c48 3.7 83.8 12.4 114.5 27.7 31.3 15.7 52.5 41 65.3 78.5 8 23.3 11.1 41.6 11.9 70.4l.6 21.2-22.9.7c-86 2.8-154.5-11.7-194.1-41.1-35.9-26.7-57.3-79.9-57.3-142.1v-15.2l5.2-.4c12.3-.8 64.5-.6 76.8.3zm-1153 229c70.2 5.5 119.5 22.4 148 51 28.2 28.2 45 77.3 45 131.6v15.2l-20.8.7c-94.8 3.5-170.9-15-206.8-50.2-29.4-28.8-46.4-77.4-46.4-132.7v-15.5l6.2-.4c14.9-.8 62.5-.6 74.8.3zm576 0c70.2 5.5 119.5 22.4 148 51 28.2 28.2 45 77.3 45 131.6v15.2l-20.8.7c-94.8 3.5-170.9-15-206.8-50.2-29.4-28.8-46.4-77.4-46.4-132.7v-15.5l6.2-.4c14.9-.8 62.5-.6 74.8.3zm-686 203.7l15.3.6-.6 21.1c-.3 11.6-1.3 25.6-2.2 31.1-8.1 50.6-28.7 88.2-59.6 108.7-30.4 20.3-73.4 32.3-130.8 36.8-15 1.1-57.8 1.4-71.9.3l-9.2-.6v-15.1c0-55.5 17-104 46.4-132.9 28.6-28 84.1-46 154.6-50 11.3-.7 43.2-.7 58 0zm576 0l15.3.6-.6 21.1c-.3 11.6-1.3 25.6-2.2 31.1-8.1 50.6-28.7 88.2-59.6 108.7-30.4 20.3-73.4 32.3-130.9 36.8-15 1.1-57.7 1.4-71.8.3l-9.2-.6v-15.1c0-55.5 17-104 46.4-132.9 28.6-28 84.1-46 154.6-50 11.3-.7 43.2-.7 58 0zm576 0l15.3.6-.6 21.1c-.3 11.6-1.3 25.6-2.2 31.1-8.1 50.6-28.7 88.2-59.6 108.7-30.4 20.3-73.4 32.3-130.9 36.8-15 1.1-57.7 1.4-71.8.4l-9.2-.7v-15.1c0-55.5 17-104 46.4-132.9 28.6-28 84.1-46 154.6-50 11.3-.7 43.2-.7 58 0zm288 0l15.3.6-.6 21.1c-.3 11.6-1.3 25.6-2.2 31.1-8.1 50.6-28.7 88.2-59.6 108.7-30.4 20.3-73.4 32.3-130.8 36.8-15 1.1-57.8 1.4-71.9.4l-9.2-.7v-15.1c0-55.5 17-104 46.4-132.9 28.6-28 84.1-46 154.6-50 11.3-.7 43.2-.7 58 0z" fill="#74b42a"/><path d="M277.4 15.7l3.8.5-.5 20.2c-.5 22.6-2.3 35.8-7.3 55.5-15.7 61.5-50.4 94.3-117.3 111.1-33.5 8.3-63.4 11.4-109.6 11.3-34.4 0-39.2-.4-39.7-3-.8-4 1.1-39.9 2.6-49.7 6.5-42.1 22-75.5 44.9-97.3 31-29.5 88.8-46.9 164.7-49.7 11.4-.4 53.5.3 58.4 1.1zm576 0l3.8.5-.5 20.2c-.5 22.6-2.3 35.8-7.3 55.5-15.7 61.5-50.4 94.3-117.3 111.1-33.5 8.3-63.4 11.4-109.6 11.3-34.4 0-39.2-.4-39.7-3-.8-4 1.1-39.9 2.6-49.7 6.5-42.1 22-75.5 44.9-97.3 31-29.5 88.8-46.9 164.7-49.7 11.4-.4 53.5.3 58.4 1.1zm576 0l3.8.5-.5 20.2c-.5 22.6-2.3 35.8-7.3 55.5-15.7 61.5-50.4 94.3-117.3 111.1-33.5 8.3-63.4 11.4-109.6 11.3-34.4 0-39.2-.4-39.7-3-.8-4 1.1-39.9 2.6-49.7 6.4-41.3 21.5-74.5 43.8-96.3 30.8-30 89.1-47.9 165.8-50.7 11.4-.4 53.5.3 58.4 1.1zm288 0l3.8.5-.5 20.2c-.5 22.6-2.3 35.8-7.3 55.5-15.7 61.5-50.4 94.3-117.3 111.1-33.5 8.3-63.4 11.4-109.6 11.3-34.4 0-39.2-.4-39.7-3-.8-4 1.1-39.9 2.6-49.7 6.5-42.1 22-75.5 44.9-97.3 31-29.5 88.8-46.9 164.7-49.7 11.4-.4 53.5.3 58.4 1.1zM377.1 220c47.9 3.7 83.7 12.4 114.4 27.7 31.3 15.7 52.5 41 65.3 78.5 8 23.3 11.1 41.6 11.9 70.4l.6 21.2-22.9.7c-86 2.8-154.5-11.7-194.1-41.1-35.9-26.7-57.3-79.9-57.3-142.1v-15.2l5.2-.4c12.3-.8 64.5-.6 76.8.3zm576 0c48 3.7 83.8 12.4 114.5 27.7 31.3 15.7 52.5 41 65.3 78.5 8 23.3 11.1 41.6 11.9 70.4l.6 21.2-22.9.7c-86 2.8-154.5-11.7-194.1-41.1-35.9-26.7-57.3-79.9-57.3-142.1v-15.2l5.2-.4c12.3-.8 64.5-.6 76.8.3zm-865 229c70.2 5.5 119.5 22.4 148 51 28.2 28.2 45 77.3 45 131.6v15.2l-20.8.7c-94.8 3.5-170.9-15-206.8-50.2-29.4-28.8-46.4-77.4-46.4-132.7v-15.5l6.2-.4c14.9-.8 62.5-.6 74.8.3zm576 0c70.2 5.5 119.5 22.4 148 51 28.2 28.2 45 77.3 45 131.6v15.2l-20.8.7c-94.8 3.5-170.9-15-206.8-50.2-29.4-28.8-46.4-77.4-46.4-132.7v-15.5l6.2-.4c14.9-.8 62.5-.6 74.8.3zm576 0c70.2 5.5 119.5 22.4 148 51 28.2 28.2 45 77.3 45 131.6v15.2l-20.8.7c-94.8 3.5-170.9-15-206.8-50.2-29.4-28.8-46.4-77.4-46.4-132.7v-15.5l6.3-.4c14.8-.8 62.4-.6 74.7.3zm288 0c70.2 5.5 119.5 22.4 148 51 28.2 28.2 45 77.3 45 131.6v15.2l-20.7.7c-94.9 3.5-171-15-206.9-50.2-29.4-28.8-46.4-77.4-46.4-132.7v-15.5l6.3-.4c14.8-.8 62.4-.6 74.7.3zm-974 203.7l15.3.6-.6 21.1c-.3 11.6-1.3 25.6-2.2 31.1-8.1 50.6-28.7 88.2-59.6 108.7-30.4 20.3-73.4 32.3-130.9 36.8-14.9 1.1-57.7 1.4-71.8.4l-9.2-.7v-15.1c0-55.5 17-104 46.4-132.9 28.6-28 84.1-46 154.6-50 11.3-.7 43.2-.7 58 0zm576 0l15.3.6-.6 21.1c-.3 11.6-1.3 25.6-2.2 31.1-8.1 50.6-28.7 88.2-59.6 108.7-30.4 20.3-73.4 32.3-130.9 36.8-15 1.1-57.7 1.4-71.8.4l-9.2-.7v-15.1c0-55.5 17-104 46.4-132.9 28.6-28 84.1-46 154.6-50 11.3-.7 43.2-.7 58 0z" fill="#e66b1d"/></svg>